<mxfile host="app.diagrams.net" modified="2023-02-06T09:04:01.571Z" agent="5.0 (Windows NT 10.0; Win64; x64) AppleWebKit/537.36 (KHTML, like Gecko) Chrome/109.0.0.0 Safari/537.36" etag="E0uUx6DKCzG3L74Mqn5Z" version="20.8.15" type="github">
  <diagram name="Page-1" id="Vp3UtgJeincbFoOHIrKj">
    <mxGraphModel dx="2649" dy="1011" grid="1" gridSize="10" guides="1" tooltips="1" connect="1" arrows="1" fold="1" page="1" pageScale="1" pageWidth="850" pageHeight="1100" math="0" shadow="0">
      <root>
        <mxCell id="0" />
        <mxCell id="1" parent="0" />
        <object placeholders="1" c4Name="Loadbalancing Microservice - API Application" c4Type="ContainerScopeBoundary" c4Application="Container" label="&lt;font style=&quot;font-size: 16px&quot;&gt;&lt;b&gt;&lt;div style=&quot;text-align: left&quot;&gt;%c4Name%&lt;/div&gt;&lt;/b&gt;&lt;/font&gt;&lt;div style=&quot;text-align: left&quot;&gt;[%c4Application%]&lt;/div&gt;" id="2WhYnMmV4vYpmS79WB0W-1">
          <mxCell style="rounded=1;fontSize=11;whiteSpace=wrap;html=1;dashed=1;arcSize=20;fillColor=none;strokeColor=#666666;fontColor=#333333;labelBackgroundColor=none;align=left;verticalAlign=bottom;labelBorderColor=none;spacingTop=0;spacing=10;dashPattern=8 4;metaEdit=1;rotatable=0;perimeter=rectanglePerimeter;noLabel=0;labelPadding=0;allowArrows=0;connectable=0;expand=0;recursiveResize=0;editable=1;pointerEvents=0;absoluteArcSize=1;points=[[0.25,0,0],[0.5,0,0],[0.75,0,0],[1,0.25,0],[1,0.5,0],[1,0.75,0],[0.75,1,0],[0.5,1,0],[0.25,1,0],[0,0.75,0],[0,0.5,0],[0,0.25,0]];" vertex="1" parent="1">
            <mxGeometry x="-190" y="390" width="1420" height="390" as="geometry" />
          </mxCell>
        </object>
        <mxCell id="2WhYnMmV4vYpmS79WB0W-2" style="edgeStyle=orthogonalEdgeStyle;rounded=0;orthogonalLoop=1;jettySize=auto;html=1;" edge="1" parent="1" source="2WhYnMmV4vYpmS79WB0W-6" target="2WhYnMmV4vYpmS79WB0W-9">
          <mxGeometry relative="1" as="geometry">
            <Array as="points">
              <mxPoint x="410" y="410" />
              <mxPoint x="320" y="410" />
            </Array>
          </mxGeometry>
        </mxCell>
        <mxCell id="2WhYnMmV4vYpmS79WB0W-3" value="Gọi API&lt;br style=&quot;border-color: var(--border-color);&quot;&gt;[API]" style="edgeLabel;html=1;align=center;verticalAlign=middle;resizable=0;points=[];" vertex="1" connectable="0" parent="2WhYnMmV4vYpmS79WB0W-2">
          <mxGeometry x="0.1186" relative="1" as="geometry">
            <mxPoint as="offset" />
          </mxGeometry>
        </mxCell>
        <mxCell id="2WhYnMmV4vYpmS79WB0W-4" style="edgeStyle=orthogonalEdgeStyle;rounded=0;orthogonalLoop=1;jettySize=auto;html=1;" edge="1" parent="1" source="2WhYnMmV4vYpmS79WB0W-6" target="2WhYnMmV4vYpmS79WB0W-12">
          <mxGeometry relative="1" as="geometry">
            <Array as="points">
              <mxPoint x="600" y="400" />
              <mxPoint x="690" y="400" />
            </Array>
          </mxGeometry>
        </mxCell>
        <mxCell id="2WhYnMmV4vYpmS79WB0W-5" value="Gọi API&lt;br style=&quot;border-color: var(--border-color);&quot;&gt;[API]" style="edgeLabel;html=1;align=center;verticalAlign=middle;resizable=0;points=[];" vertex="1" connectable="0" parent="2WhYnMmV4vYpmS79WB0W-4">
          <mxGeometry x="0.352" y="-2" relative="1" as="geometry">
            <mxPoint as="offset" />
          </mxGeometry>
        </mxCell>
        <mxCell id="2WhYnMmV4vYpmS79WB0W-33" style="edgeStyle=orthogonalEdgeStyle;rounded=0;orthogonalLoop=1;jettySize=auto;html=1;" edge="1" parent="1" source="2WhYnMmV4vYpmS79WB0W-6" target="2WhYnMmV4vYpmS79WB0W-25">
          <mxGeometry relative="1" as="geometry">
            <Array as="points">
              <mxPoint x="470" y="650" />
            </Array>
          </mxGeometry>
        </mxCell>
        <mxCell id="2WhYnMmV4vYpmS79WB0W-34" value="Gọi API&lt;br style=&quot;border-color: var(--border-color);&quot;&gt;[API]" style="edgeLabel;html=1;align=center;verticalAlign=middle;resizable=0;points=[];" vertex="1" connectable="0" parent="2WhYnMmV4vYpmS79WB0W-33">
          <mxGeometry x="-0.378" y="3" relative="1" as="geometry">
            <mxPoint as="offset" />
          </mxGeometry>
        </mxCell>
        <mxCell id="2WhYnMmV4vYpmS79WB0W-35" style="edgeStyle=orthogonalEdgeStyle;rounded=0;orthogonalLoop=1;jettySize=auto;html=1;" edge="1" parent="1" source="2WhYnMmV4vYpmS79WB0W-6" target="2WhYnMmV4vYpmS79WB0W-29">
          <mxGeometry relative="1" as="geometry">
            <Array as="points">
              <mxPoint x="520" y="650" />
            </Array>
          </mxGeometry>
        </mxCell>
        <mxCell id="2WhYnMmV4vYpmS79WB0W-36" value="Gọi API&lt;br style=&quot;border-color: var(--border-color);&quot;&gt;[API]" style="edgeLabel;html=1;align=center;verticalAlign=middle;resizable=0;points=[];" vertex="1" connectable="0" parent="2WhYnMmV4vYpmS79WB0W-35">
          <mxGeometry x="-0.0473" y="4" relative="1" as="geometry">
            <mxPoint as="offset" />
          </mxGeometry>
        </mxCell>
        <object placeholders="1" c4Type="Single-Page Application" c4Container="Container" c4Technology="Angular" c4Description="Người dùng tương tác với giao diện web browser này" label="&lt;font style=&quot;font-size: 16px&quot;&gt;&lt;b&gt;%c4Type%&lt;/b&gt;&lt;/font&gt;&lt;div&gt;[%c4Container%:&amp;nbsp;%c4Technology%]&lt;/div&gt;&lt;br&gt;&lt;div&gt;&lt;font style=&quot;font-size: 11px&quot;&gt;&lt;font color=&quot;#E6E6E6&quot;&gt;%c4Description%&lt;/font&gt;&lt;/div&gt;" id="2WhYnMmV4vYpmS79WB0W-6">
          <mxCell style="shape=mxgraph.c4.webBrowserContainer2;whiteSpace=wrap;html=1;boundedLbl=1;rounded=0;labelBackgroundColor=none;strokeColor=#118ACD;fillColor=#23A2D9;strokeColor=#118ACD;strokeColor2=#0E7DAD;fontSize=12;fontColor=#ffffff;align=center;metaEdit=1;points=[[0.5,0,0],[1,0.25,0],[1,0.5,0],[1,0.75,0],[0.5,1,0],[0,0.75,0],[0,0.5,0],[0,0.25,0]];resizable=0;" vertex="1" parent="1">
            <mxGeometry x="380" y="190" width="240" height="160" as="geometry" />
          </mxCell>
        </object>
        <mxCell id="2WhYnMmV4vYpmS79WB0W-7" style="edgeStyle=orthogonalEdgeStyle;rounded=0;orthogonalLoop=1;jettySize=auto;html=1;" edge="1" parent="1" source="2WhYnMmV4vYpmS79WB0W-9" target="2WhYnMmV4vYpmS79WB0W-18">
          <mxGeometry relative="1" as="geometry" />
        </mxCell>
        <mxCell id="2WhYnMmV4vYpmS79WB0W-8" value="Gọi&lt;br&gt;[Function Call]" style="edgeLabel;html=1;align=center;verticalAlign=middle;resizable=0;points=[];" vertex="1" connectable="0" parent="2WhYnMmV4vYpmS79WB0W-7">
          <mxGeometry x="0.1805" y="2" relative="1" as="geometry">
            <mxPoint x="17" y="-2" as="offset" />
          </mxGeometry>
        </mxCell>
        <object placeholders="1" c4Name="LB Controller" c4Type="Component" c4Technology="Java Spring" c4Description="Cung cấp cho người dùng thao tác liên quan tới cập nhật Loadbalancing" label="&lt;font style=&quot;font-size: 16px&quot;&gt;&lt;b&gt;%c4Name%&lt;/b&gt;&lt;/font&gt;&lt;div&gt;[%c4Type%: %c4Technology%]&lt;/div&gt;&lt;br&gt;&lt;div&gt;&lt;font style=&quot;font-size: 11px&quot;&gt;%c4Description%&lt;/font&gt;&lt;/div&gt;" id="2WhYnMmV4vYpmS79WB0W-9">
          <mxCell style="rounded=1;whiteSpace=wrap;html=1;labelBackgroundColor=none;fillColor=#63BEF2;fontColor=#ffffff;align=center;arcSize=6;strokeColor=#2086C9;metaEdit=1;resizable=0;points=[[0.25,0,0],[0.5,0,0],[0.75,0,0],[1,0.25,0],[1,0.5,0],[1,0.75,0],[0.75,1,0],[0.5,1,0],[0.25,1,0],[0,0.75,0],[0,0.5,0],[0,0.25,0]];" vertex="1" parent="1">
            <mxGeometry x="150" y="430" width="240" height="120" as="geometry" />
          </mxCell>
        </object>
        <mxCell id="2WhYnMmV4vYpmS79WB0W-10" style="edgeStyle=orthogonalEdgeStyle;rounded=0;orthogonalLoop=1;jettySize=auto;html=1;" edge="1" parent="1" source="2WhYnMmV4vYpmS79WB0W-12" target="2WhYnMmV4vYpmS79WB0W-21">
          <mxGeometry relative="1" as="geometry" />
        </mxCell>
        <mxCell id="2WhYnMmV4vYpmS79WB0W-11" value="Gọi&lt;br style=&quot;border-color: var(--border-color);&quot;&gt;[Function Call]" style="edgeLabel;html=1;align=center;verticalAlign=middle;resizable=0;points=[];" vertex="1" connectable="0" parent="2WhYnMmV4vYpmS79WB0W-10">
          <mxGeometry x="-0.2011" y="2" relative="1" as="geometry">
            <mxPoint as="offset" />
          </mxGeometry>
        </mxCell>
        <object placeholders="1" c4Name="OTP Controller" c4Type="Component" c4Technology="Java Spring" c4Description="Cung cấp cho người dùng thao tác liên quan tới gửi thông tin OTP" label="&lt;font style=&quot;font-size: 16px&quot;&gt;&lt;b&gt;%c4Name%&lt;/b&gt;&lt;/font&gt;&lt;div&gt;[%c4Type%: %c4Technology%]&lt;/div&gt;&lt;br&gt;&lt;div&gt;&lt;font style=&quot;font-size: 11px&quot;&gt;%c4Description%&lt;/font&gt;&lt;/div&gt;" id="2WhYnMmV4vYpmS79WB0W-12">
          <mxCell style="rounded=1;whiteSpace=wrap;html=1;labelBackgroundColor=none;fillColor=#63BEF2;fontColor=#ffffff;align=center;arcSize=6;strokeColor=#2086C9;metaEdit=1;resizable=0;points=[[0.25,0,0],[0.5,0,0],[0.75,0,0],[1,0.25,0],[1,0.5,0],[1,0.75,0],[0.75,1,0],[0.5,1,0],[0.25,1,0],[0,0.75,0],[0,0.5,0],[0,0.25,0]];" vertex="1" parent="1">
            <mxGeometry x="630" y="430" width="240" height="120" as="geometry" />
          </mxCell>
        </object>
        <object placeholders="1" c4Type="Database" c4Container="Container" c4Technology="MySQL" c4Description="MySQL Database Schema" label="&lt;font style=&quot;font-size: 16px&quot;&gt;&lt;b&gt;%c4Type%&lt;/b&gt;&lt;/font&gt;&lt;div&gt;[%c4Container%:&amp;nbsp;%c4Technology%]&lt;/div&gt;&lt;br&gt;&lt;div&gt;&lt;font style=&quot;font-size: 11px&quot;&gt;&lt;font color=&quot;#E6E6E6&quot;&gt;%c4Description%&lt;/font&gt;&lt;/div&gt;" id="2WhYnMmV4vYpmS79WB0W-13">
          <mxCell style="shape=cylinder3;size=15;whiteSpace=wrap;html=1;boundedLbl=1;rounded=0;labelBackgroundColor=none;fillColor=#23A2D9;fontSize=12;fontColor=#ffffff;align=center;strokeColor=#0E7DAD;metaEdit=1;points=[[0.5,0,0],[1,0.25,0],[1,0.5,0],[1,0.75,0],[0.5,1,0],[0,0.75,0],[0,0.5,0],[0,0.25,0]];resizable=0;" vertex="1" parent="1">
            <mxGeometry y="915.6500000000001" width="240" height="120" as="geometry" />
          </mxCell>
        </object>
        <mxCell id="2WhYnMmV4vYpmS79WB0W-14" style="edgeStyle=orthogonalEdgeStyle;rounded=0;orthogonalLoop=1;jettySize=auto;html=1;" edge="1" parent="1" source="2WhYnMmV4vYpmS79WB0W-18" target="2WhYnMmV4vYpmS79WB0W-13">
          <mxGeometry relative="1" as="geometry">
            <Array as="points">
              <mxPoint x="-160" y="976" />
            </Array>
          </mxGeometry>
        </mxCell>
        <mxCell id="2WhYnMmV4vYpmS79WB0W-15" value="Cập nhật dữ liệu&lt;br style=&quot;border-color: var(--border-color);&quot;&gt;[Jdbc]" style="edgeLabel;html=1;align=center;verticalAlign=middle;resizable=0;points=[];" vertex="1" connectable="0" parent="2WhYnMmV4vYpmS79WB0W-14">
          <mxGeometry x="0.6658" y="-1" relative="1" as="geometry">
            <mxPoint x="17" y="-10" as="offset" />
          </mxGeometry>
        </mxCell>
        <mxCell id="2WhYnMmV4vYpmS79WB0W-16" style="edgeStyle=orthogonalEdgeStyle;rounded=0;orthogonalLoop=1;jettySize=auto;html=1;" edge="1" parent="1" source="2WhYnMmV4vYpmS79WB0W-18" target="2WhYnMmV4vYpmS79WB0W-22">
          <mxGeometry relative="1" as="geometry">
            <Array as="points">
              <mxPoint x="-140" y="860" />
            </Array>
          </mxGeometry>
        </mxCell>
        <mxCell id="2WhYnMmV4vYpmS79WB0W-17" value="Gửi cập nhật Mngt&lt;br&gt;[SDK]" style="edgeLabel;html=1;align=center;verticalAlign=middle;resizable=0;points=[];" vertex="1" connectable="0" parent="2WhYnMmV4vYpmS79WB0W-16">
          <mxGeometry x="0.3788" y="1" relative="1" as="geometry">
            <mxPoint as="offset" />
          </mxGeometry>
        </mxCell>
        <object placeholders="1" c4Name="LB Service" c4Type="Component" c4Technology="Java Spring" c4Description="Cung cấp thao tác liên quan tới cập nhật Loadbalancing" label="&lt;font style=&quot;font-size: 16px&quot;&gt;&lt;b&gt;%c4Name%&lt;/b&gt;&lt;/font&gt;&lt;div&gt;[%c4Type%: %c4Technology%]&lt;/div&gt;&lt;br&gt;&lt;div&gt;&lt;font style=&quot;font-size: 11px&quot;&gt;%c4Description%&lt;/font&gt;&lt;/div&gt;" id="2WhYnMmV4vYpmS79WB0W-18">
          <mxCell style="rounded=1;whiteSpace=wrap;html=1;labelBackgroundColor=none;fillColor=#63BEF2;fontColor=#ffffff;align=center;arcSize=6;strokeColor=#2086C9;metaEdit=1;resizable=0;points=[[0.25,0,0],[0.5,0,0],[0.75,0,0],[1,0.25,0],[1,0.5,0],[1,0.75,0],[0.75,1,0],[0.5,1,0],[0.25,1,0],[0,0.75,0],[0,0.5,0],[0,0.25,0]];" vertex="1" parent="1">
            <mxGeometry x="-170" y="430" width="240" height="120" as="geometry" />
          </mxCell>
        </object>
        <mxCell id="2WhYnMmV4vYpmS79WB0W-19" style="edgeStyle=orthogonalEdgeStyle;rounded=0;orthogonalLoop=1;jettySize=auto;html=1;" edge="1" parent="1" source="2WhYnMmV4vYpmS79WB0W-21" target="2WhYnMmV4vYpmS79WB0W-22">
          <mxGeometry relative="1" as="geometry">
            <Array as="points">
              <mxPoint x="1190" y="870" />
            </Array>
          </mxGeometry>
        </mxCell>
        <mxCell id="2WhYnMmV4vYpmS79WB0W-20" value="Gửi yêu cầu OTP&lt;br&gt;[SDK]" style="edgeLabel;html=1;align=center;verticalAlign=middle;resizable=0;points=[];" vertex="1" connectable="0" parent="2WhYnMmV4vYpmS79WB0W-19">
          <mxGeometry x="0.4884" relative="1" as="geometry">
            <mxPoint as="offset" />
          </mxGeometry>
        </mxCell>
        <object placeholders="1" c4Name="OTP Service" c4Type="Component" c4Technology="Java Spring" c4Description="Cung cấp thao tác liên quan tới gửi thông tin OTP" label="&lt;font style=&quot;font-size: 16px&quot;&gt;&lt;b&gt;%c4Name%&lt;/b&gt;&lt;/font&gt;&lt;div&gt;[%c4Type%: %c4Technology%]&lt;/div&gt;&lt;br&gt;&lt;div&gt;&lt;font style=&quot;font-size: 11px&quot;&gt;%c4Description%&lt;/font&gt;&lt;/div&gt;" id="2WhYnMmV4vYpmS79WB0W-21">
          <mxCell style="rounded=1;whiteSpace=wrap;html=1;labelBackgroundColor=none;fillColor=#63BEF2;fontColor=#ffffff;align=center;arcSize=6;strokeColor=#2086C9;metaEdit=1;resizable=0;points=[[0.25,0,0],[0.5,0,0],[0.75,0,0],[1,0.25,0],[1,0.5,0],[1,0.75,0],[0.75,1,0],[0.5,1,0],[0.25,1,0],[0,0.75,0],[0,0.5,0],[0,0.25,0]];" vertex="1" parent="1">
            <mxGeometry x="970" y="430" width="240" height="120" as="geometry" />
          </mxCell>
        </object>
        <object placeholders="1" c4Name="Kafka Server" c4Type="Software System" c4Description="Server Kafka phục vụ giao tiếp các microservice với nhau" label="&lt;font style=&quot;font-size: 16px&quot;&gt;&lt;b&gt;%c4Name%&lt;/b&gt;&lt;/font&gt;&lt;div&gt;[%c4Type%]&lt;/div&gt;&lt;br&gt;&lt;div&gt;&lt;font style=&quot;font-size: 11px&quot;&gt;&lt;font color=&quot;#cccccc&quot;&gt;%c4Description%&lt;/font&gt;&lt;/div&gt;" id="2WhYnMmV4vYpmS79WB0W-22">
          <mxCell style="rounded=1;whiteSpace=wrap;html=1;labelBackgroundColor=none;fillColor=#8C8496;fontColor=#ffffff;align=center;arcSize=10;strokeColor=#736782;metaEdit=1;resizable=0;points=[[0.25,0,0],[0.5,0,0],[0.75,0,0],[1,0.25,0],[1,0.5,0],[1,0.75,0],[0.75,1,0],[0.5,1,0],[0.25,1,0],[0,0.75,0],[0,0.5,0],[0,0.25,0]];" vertex="1" parent="1">
            <mxGeometry x="580" y="810.0000000000001" width="240" height="120" as="geometry" />
          </mxCell>
        </object>
        <mxCell id="2WhYnMmV4vYpmS79WB0W-23" style="edgeStyle=orthogonalEdgeStyle;rounded=0;orthogonalLoop=1;jettySize=auto;html=1;" edge="1" parent="1" source="2WhYnMmV4vYpmS79WB0W-25" target="2WhYnMmV4vYpmS79WB0W-26">
          <mxGeometry relative="1" as="geometry" />
        </mxCell>
        <mxCell id="2WhYnMmV4vYpmS79WB0W-24" value="Gọi&lt;br&gt;[Function Call]" style="edgeLabel;html=1;align=center;verticalAlign=middle;resizable=0;points=[];" vertex="1" connectable="0" parent="2WhYnMmV4vYpmS79WB0W-23">
          <mxGeometry x="0.1805" y="2" relative="1" as="geometry">
            <mxPoint x="13" y="-2" as="offset" />
          </mxGeometry>
        </mxCell>
        <object placeholders="1" c4Name="SSL Controller" c4Type="Component" c4Technology="Java Spring" c4Description="Cung cấp cho người dùng thao tác liên quan tới cập nhật SSL" label="&lt;font style=&quot;font-size: 16px&quot;&gt;&lt;b&gt;%c4Name%&lt;/b&gt;&lt;/font&gt;&lt;div&gt;[%c4Type%: %c4Technology%]&lt;/div&gt;&lt;br&gt;&lt;div&gt;&lt;font style=&quot;font-size: 11px&quot;&gt;%c4Description%&lt;/font&gt;&lt;/div&gt;" id="2WhYnMmV4vYpmS79WB0W-25">
          <mxCell style="rounded=1;whiteSpace=wrap;html=1;labelBackgroundColor=none;fillColor=#63BEF2;fontColor=#ffffff;align=center;arcSize=6;strokeColor=#2086C9;metaEdit=1;resizable=0;points=[[0.25,0,0],[0.5,0,0],[0.75,0,0],[1,0.25,0],[1,0.5,0],[1,0.75,0],[0.75,1,0],[0.5,1,0],[0.25,1,0],[0,0.75,0],[0,0.5,0],[0,0.25,0]];" vertex="1" parent="1">
            <mxGeometry x="200" y="590" width="240" height="120" as="geometry" />
          </mxCell>
        </object>
        <mxCell id="2WhYnMmV4vYpmS79WB0W-31" style="edgeStyle=orthogonalEdgeStyle;rounded=0;orthogonalLoop=1;jettySize=auto;html=1;" edge="1" parent="1" source="2WhYnMmV4vYpmS79WB0W-26" target="2WhYnMmV4vYpmS79WB0W-13">
          <mxGeometry relative="1" as="geometry">
            <mxPoint x="-10" y="840" as="targetPoint" />
            <Array as="points">
              <mxPoint x="80" y="810" />
              <mxPoint x="80" y="810" />
            </Array>
          </mxGeometry>
        </mxCell>
        <mxCell id="2WhYnMmV4vYpmS79WB0W-32" value="Cập nhật dữ liệu&lt;br&gt;[Jdbc]" style="edgeLabel;html=1;align=center;verticalAlign=middle;resizable=0;points=[];" vertex="1" connectable="0" parent="2WhYnMmV4vYpmS79WB0W-31">
          <mxGeometry x="0.2897" y="1" relative="1" as="geometry">
            <mxPoint y="-23" as="offset" />
          </mxGeometry>
        </mxCell>
        <object placeholders="1" c4Name="SSL Service" c4Type="Component" c4Technology="Java Spring" c4Description="Cung cấp thao tác liên quan tới cập nhật SSL" label="&lt;font style=&quot;font-size: 16px&quot;&gt;&lt;b&gt;%c4Name%&lt;/b&gt;&lt;/font&gt;&lt;div&gt;[%c4Type%: %c4Technology%]&lt;/div&gt;&lt;br&gt;&lt;div&gt;&lt;font style=&quot;font-size: 11px&quot;&gt;%c4Description%&lt;/font&gt;&lt;/div&gt;" id="2WhYnMmV4vYpmS79WB0W-26">
          <mxCell style="rounded=1;whiteSpace=wrap;html=1;labelBackgroundColor=none;fillColor=#63BEF2;fontColor=#ffffff;align=center;arcSize=6;strokeColor=#2086C9;metaEdit=1;resizable=0;points=[[0.25,0,0],[0.5,0,0],[0.75,0,0],[1,0.25,0],[1,0.5,0],[1,0.75,0],[0.75,1,0],[0.5,1,0],[0.25,1,0],[0,0.75,0],[0,0.5,0],[0,0.25,0]];" vertex="1" parent="1">
            <mxGeometry x="-130" y="590" width="240" height="120" as="geometry" />
          </mxCell>
        </object>
        <mxCell id="2WhYnMmV4vYpmS79WB0W-27" style="edgeStyle=orthogonalEdgeStyle;rounded=0;orthogonalLoop=1;jettySize=auto;html=1;" edge="1" parent="1" source="2WhYnMmV4vYpmS79WB0W-29" target="2WhYnMmV4vYpmS79WB0W-30">
          <mxGeometry relative="1" as="geometry" />
        </mxCell>
        <mxCell id="2WhYnMmV4vYpmS79WB0W-28" value="Gọi&lt;br style=&quot;border-color: var(--border-color);&quot;&gt;[Function Call]" style="edgeLabel;html=1;align=center;verticalAlign=middle;resizable=0;points=[];" vertex="1" connectable="0" parent="2WhYnMmV4vYpmS79WB0W-27">
          <mxGeometry x="-0.2011" y="2" relative="1" as="geometry">
            <mxPoint as="offset" />
          </mxGeometry>
        </mxCell>
        <object placeholders="1" c4Name="Monitoring Controller" c4Type="Component" c4Technology="Java Spring" c4Description="Cung cấp cho người dùng thao tác liên quan tới gửi thông tin Monitoring" label="&lt;font style=&quot;font-size: 16px&quot;&gt;&lt;b&gt;%c4Name%&lt;/b&gt;&lt;/font&gt;&lt;div&gt;[%c4Type%: %c4Technology%]&lt;/div&gt;&lt;br&gt;&lt;div&gt;&lt;font style=&quot;font-size: 11px&quot;&gt;%c4Description%&lt;/font&gt;&lt;/div&gt;" id="2WhYnMmV4vYpmS79WB0W-29">
          <mxCell style="rounded=1;whiteSpace=wrap;html=1;labelBackgroundColor=none;fillColor=#63BEF2;fontColor=#ffffff;align=center;arcSize=6;strokeColor=#2086C9;metaEdit=1;resizable=0;points=[[0.25,0,0],[0.5,0,0],[0.75,0,0],[1,0.25,0],[1,0.5,0],[1,0.75,0],[0.75,1,0],[0.5,1,0],[0.25,1,0],[0,0.75,0],[0,0.5,0],[0,0.25,0]];" vertex="1" parent="1">
            <mxGeometry x="580" y="600" width="240" height="120" as="geometry" />
          </mxCell>
        </object>
        <mxCell id="2WhYnMmV4vYpmS79WB0W-37" style="edgeStyle=orthogonalEdgeStyle;rounded=0;orthogonalLoop=1;jettySize=auto;html=1;" edge="1" parent="1" source="2WhYnMmV4vYpmS79WB0W-30" target="2WhYnMmV4vYpmS79WB0W-13">
          <mxGeometry relative="1" as="geometry">
            <Array as="points">
              <mxPoint x="1080" y="976" />
            </Array>
          </mxGeometry>
        </mxCell>
        <mxCell id="2WhYnMmV4vYpmS79WB0W-38" value="Lấy dữ liệu&amp;nbsp;&lt;br&gt;[Jdbc]" style="edgeLabel;html=1;align=center;verticalAlign=middle;resizable=0;points=[];" vertex="1" connectable="0" parent="2WhYnMmV4vYpmS79WB0W-37">
          <mxGeometry x="0.1982" relative="1" as="geometry">
            <mxPoint as="offset" />
          </mxGeometry>
        </mxCell>
        <object placeholders="1" c4Name="Monitoring Service" c4Type="Component" c4Technology="Java Spring" c4Description="Cung cấp thao tác liên quan tới gửi thông tin Monitoring" label="&lt;font style=&quot;font-size: 16px&quot;&gt;&lt;b&gt;%c4Name%&lt;/b&gt;&lt;/font&gt;&lt;div&gt;[%c4Type%: %c4Technology%]&lt;/div&gt;&lt;br&gt;&lt;div&gt;&lt;font style=&quot;font-size: 11px&quot;&gt;%c4Description%&lt;/font&gt;&lt;/div&gt;" id="2WhYnMmV4vYpmS79WB0W-30">
          <mxCell style="rounded=1;whiteSpace=wrap;html=1;labelBackgroundColor=none;fillColor=#63BEF2;fontColor=#ffffff;align=center;arcSize=6;strokeColor=#2086C9;metaEdit=1;resizable=0;points=[[0.25,0,0],[0.5,0,0],[0.75,0,0],[1,0.25,0],[1,0.5,0],[1,0.75,0],[0.75,1,0],[0.5,1,0],[0.25,1,0],[0,0.75,0],[0,0.5,0],[0,0.25,0]];" vertex="1" parent="1">
            <mxGeometry x="920" y="600" width="240" height="120" as="geometry" />
          </mxCell>
        </object>
      </root>
    </mxGraphModel>
  </diagram>
</mxfile>
